<svg width="1024" height="1024" viewBox="0 0 1024 1024" fill="none" xmlns="http://www.w3.org/2000/svg">
<path d="M512 82.2858C547.108 82.2826 580.881 95.7441 606.361 119.897C631.841 144.051 647.088 177.056 648.96 212.114L649.143 219.429H850.286C857.235 219.431 863.925 222.071 869.003 226.815C874.081 231.559 877.168 238.054 877.642 244.988C878.116 251.921 875.94 258.776 871.554 264.166C867.169 269.557 860.901 273.083 854.016 274.03L850.286 274.286H811.557L766.939 824.795C764.155 859.139 748.546 891.176 723.216 914.534C697.886 937.892 664.691 950.86 630.235 950.857H393.765C359.309 950.86 326.114 937.892 300.784 914.534C275.454 891.176 259.845 859.139 257.06 824.795L212.407 274.286H173.714C167.086 274.285 160.682 271.885 155.687 267.529C150.692 263.172 147.443 257.154 146.542 250.587L146.286 246.857C146.286 240.229 148.686 233.825 153.043 228.83C157.399 223.835 163.417 220.586 169.984 219.685L173.714 219.429H374.857C374.857 183.056 389.306 148.173 415.025 122.454C440.745 96.7347 475.627 82.2858 512 82.2858V82.2858ZM756.553 274.286H267.447L311.735 820.37C313.407 840.976 322.775 860.198 337.974 874.211C353.173 888.225 373.091 896.003 393.765 896H630.235C650.909 896.003 670.827 888.225 686.026 874.211C701.225 860.198 710.593 840.976 712.265 820.37L756.517 274.286H756.553ZM429.714 411.429C436.342 411.429 442.746 413.829 447.741 418.186C452.737 422.542 455.985 428.56 456.887 435.127L457.143 438.857V731.429C457.141 738.378 454.501 745.068 449.756 750.146C445.012 755.223 438.517 758.311 431.584 758.785C424.65 759.259 417.796 757.083 412.405 752.697C407.014 748.312 403.489 742.043 402.542 735.159L402.286 731.429V438.857C402.286 431.583 405.175 424.606 410.319 419.462C415.463 414.318 422.44 411.429 429.714 411.429V411.429ZM594.286 411.429C600.914 411.429 607.318 413.829 612.313 418.186C617.308 422.542 620.557 428.56 621.458 435.127L621.714 438.857V731.429C621.712 738.378 619.072 745.068 614.328 750.146C609.583 755.223 603.088 758.311 596.155 758.785C589.222 759.259 582.367 757.083 576.976 752.697C571.586 748.312 568.06 742.043 567.113 735.159L566.857 731.429V438.857C566.857 431.583 569.747 424.606 574.891 419.462C580.035 414.318 587.011 411.429 594.286 411.429ZM512 137.143C491.15 137.14 471.076 145.053 455.835 159.282C440.595 173.511 431.324 192.995 429.897 213.797L429.714 219.429H594.286L594.103 213.797C592.676 192.995 583.405 173.511 568.165 159.282C552.924 145.053 532.85 137.14 512 137.143V137.143Z" fill="#515455"/>
</svg>
