<svg width="1024" height="1024" viewBox="0 0 1024 1024" fill="none" xmlns="http://www.w3.org/2000/svg">
<path d="M705.426 115.2C718.7 101.502 734.566 90.5817 752.101 83.0749C769.636 75.5682 788.489 71.625 807.563 71.475C826.637 71.325 845.55 74.9712 863.2 82.2013C880.851 89.4313 896.887 100.101 910.375 113.588C923.862 127.076 934.532 143.112 941.762 160.763C948.992 178.414 952.638 197.327 952.488 216.4C952.338 235.474 948.395 254.327 940.888 271.862C933.382 289.397 922.461 305.263 908.763 318.537L852.443 374.857L649.106 171.52L705.426 115.2V115.2ZM610.34 210.286L164.644 655.982C148.553 672.073 136.85 692.041 130.706 713.984L74.1301 916.041C72.823 920.725 72.7845 925.672 74.0188 930.376C75.2531 935.08 77.7157 939.37 81.1542 942.809C84.5928 946.248 88.8838 948.71 93.5874 949.945C98.291 951.179 103.238 951.14 107.922 949.833L309.943 893.257C331.883 887.118 351.872 875.43 367.982 859.319L813.714 413.659L610.377 210.322L610.34 210.286Z" fill="#515455"/>
</svg>
