<svg width="1024" height="1024" viewBox="0 0 1024 1024" fill="none" xmlns="http://www.w3.org/2000/svg">
<path d="M512 64C264.6 64 64 264.6 64 512C64 759.4 264.6 960 512 960C759.4 960 960 759.4 960 512C960 264.6 759.4 64 512 64ZM512 884C306.6 884 140 717.4 140 512C140 306.6 306.6 140 512 140C717.4 140 884 306.6 884 512C884 717.4 717.4 884 512 884Z" fill="white"/>
<path d="M512 140C306.6 140 140 306.6 140 512C140 717.4 306.6 884 512 884C717.4 884 884 717.4 884 512C884 306.6 717.4 140 512 140ZM704 536C704 540.4 700.4 544 696 544H544V696C544 700.4 540.4 704 536 704H488C483.6 704 480 700.4 480 696V544H328C323.6 544 320 540.4 320 536V488C320 483.6 323.6 480 328 480H480V328C480 323.6 483.6 320 488 320H536C540.4 320 544 323.6 544 328V480H696C700.4 480 704 483.6 704 488V536Z" fill="#777777" fill-opacity="0.15"/>
<path d="M696 480H544V328C544 323.6 540.4 320 536 320H488C483.6 320 480 323.6 480 328V480H328C323.6 480 320 483.6 320 488V536C320 540.4 323.6 544 328 544H480V696C480 700.4 483.6 704 488 704H536C540.4 704 544 700.4 544 696V544H696C700.4 544 704 540.4 704 536V488C704 483.6 700.4 480 696 480Z" fill="white"/>
</svg>
