<svg width="1024" height="1024" viewBox="0 0 1024 1024" fill="none" xmlns="http://www.w3.org/2000/svg">
<path d="M298.667 725.888L486.955 725.248L897.92 318.208C914.048 302.08 922.923 280.661 922.923 257.877C922.923 235.093 914.048 213.675 897.92 197.547L830.251 129.877C797.995 97.6213 741.717 97.792 709.717 129.749L298.667 536.875V725.888V725.888ZM769.92 190.208L837.717 257.749L769.579 325.248L701.909 257.621L769.92 190.208ZM384 572.459L641.28 317.611L708.949 385.28L451.712 640.043L384 640.256V572.459Z" fill="#515455"/>
<path d="M213.333 896H810.667C857.728 896 896 857.728 896 810.667V440.832L810.667 526.165V810.667H348.075C346.965 810.667 345.813 811.093 344.704 811.093C343.296 811.093 341.888 810.709 340.437 810.667H213.333V213.333H505.472L590.805 128H213.333C166.272 128 128 166.272 128 213.333V810.667C128 857.728 166.272 896 213.333 896Z" fill="#515455"/>
</svg>
