<svg width="1024" height="1024" viewBox="0 0 1024 1024" fill="none" xmlns="http://www.w3.org/2000/svg">
<path d="M908.8 115.2C895.447 101.845 879.594 91.2517 862.146 84.0242C844.699 76.7966 825.998 73.0766 807.113 73.0766C788.228 73.0766 769.527 76.7966 752.08 84.0242C734.632 91.2517 718.779 101.845 705.426 115.2L164.644 655.982C148.553 672.073 136.85 692.041 130.743 713.984L74.1668 916.041C72.8596 920.725 72.8212 925.672 74.0554 930.376C75.2897 935.08 77.7523 939.37 81.1909 942.809C84.6294 946.248 88.9204 948.71 93.624 949.945C98.3276 951.179 103.275 951.14 107.959 949.833L309.979 893.257C331.92 887.118 351.909 875.43 368.018 859.319L908.8 318.537C935.76 291.571 950.905 255 950.905 216.869C950.905 178.737 935.76 142.166 908.8 115.2V115.2ZM744.228 153.966C760.911 137.288 783.536 127.92 807.126 127.923C830.716 127.927 853.338 137.301 870.016 153.984C886.694 170.667 896.062 193.292 896.058 216.882C896.055 240.471 886.68 263.093 869.998 279.771L813.678 336.055L687.908 210.249L744.228 153.966V153.966ZM649.143 249.051L774.948 374.857L329.216 820.553C319.775 829.995 308.062 836.847 295.204 840.448L140.105 883.858L183.515 728.795C187.123 715.941 193.973 704.229 203.41 694.784L649.143 249.051V249.051Z" fill="#515455"/>
</svg>
